<svg width="192" height="40" viewBox="0 0 192 40" fill="none" xmlns="http://www.w3.org/2000/svg">
<mask id="mask0" mask-type="alpha" maskUnits="userSpaceOnUse" x="0" y="0" width="192" height="40">
<rect width="192" height="40" fill="#B7B7B7"/>
</mask>
<g mask="url(#mask0)">
<path fill-rule="evenodd" clip-rule="evenodd" d="M20.204 31.224C23.7578 29.0053 26.1223 25.0593 26.1223 20.5611C26.1223 13.6238 20.4984 8 13.5611 8C6.62381 8 1 13.6238 1 20.5611C1 25.0593 3.36439 29.0052 6.91817 31.2239V21.2053C6.91817 17.5365 9.8923 14.5624 13.5611 14.5624C17.2299 14.5624 20.204 17.5365 20.204 21.2053V31.224ZM18.191 32.2415V21.2053C18.191 18.6482 16.1181 16.5754 13.5611 16.5754C11.0041 16.5754 8.93117 18.6482 8.93117 21.2053V32.2414C10.3639 32.8098 11.926 33.1223 13.5611 33.1223C15.1962 33.1223 16.7583 32.8099 18.191 32.2415Z" fill="#2992FE"/>
<path fill-rule="evenodd" clip-rule="evenodd" d="M20.204 31.224C23.7578 29.0053 26.1223 25.0593 26.1223 20.5611C26.1223 13.6238 20.4984 8 13.5611 8C6.62381 8 1 13.6238 1 20.5611C1 25.0593 3.36439 29.0052 6.91817 31.2239V21.2053C6.91817 17.5365 9.8923 14.5624 13.5611 14.5624C17.2299 14.5624 20.204 17.5365 20.204 21.2053V31.224Z" fill="#FF5A31"/>
<path d="M34.5286 26.3183V15.8507H38.4902C39.0484 15.8507 39.5799 15.9044 40.0844 16.0117C40.5998 16.1191 41.0453 16.3016 41.4211 16.5593C41.8076 16.8169 42.1136 17.1659 42.339 17.606C42.5645 18.0355 42.6772 18.5777 42.6772 19.2326C42.6772 19.9841 42.5215 20.6068 42.2102 21.1006C41.9096 21.5945 41.5016 21.981 40.9863 22.2601L43.2569 26.3183H40.165L38.3613 22.8076H37.2985V26.3183H34.5286ZM37.2985 20.6175H38.2969C39.4134 20.6175 39.9717 20.1558 39.9717 19.2326C39.9717 18.7816 39.8268 18.4703 39.5369 18.2985C39.2578 18.1267 38.8444 18.0409 38.2969 18.0409H37.2985V20.6175Z" fill="#2992FE"/>
<path d="M48.0256 26.5116C47.4351 26.5116 46.8876 26.4203 46.383 26.2378C45.8784 26.0445 45.4382 25.7708 45.0625 25.4165C44.6974 25.0515 44.4076 24.6059 44.1929 24.0799C43.9781 23.5538 43.8708 22.9579 43.8708 22.2923C43.8708 21.6374 43.9781 21.0523 44.1929 20.537C44.4183 20.0109 44.7082 19.5654 45.0625 19.2003C45.4275 18.8353 45.8408 18.5562 46.3025 18.3629C46.7641 18.1697 47.2419 18.0731 47.7357 18.0731C48.3262 18.0731 48.8415 18.1751 49.2817 18.379C49.7219 18.583 50.0869 18.8622 50.3768 19.2164C50.6667 19.5707 50.8814 19.9841 51.021 20.4565C51.1713 20.9288 51.2464 21.4334 51.2464 21.9702C51.2464 22.2172 51.2303 22.448 51.1981 22.6627C51.1766 22.8774 51.1552 23.0331 51.1337 23.1297H46.544C46.6729 23.6128 46.9037 23.951 47.2365 24.1443C47.5693 24.3268 47.9612 24.418 48.4121 24.418C48.6912 24.418 48.9596 24.3805 49.2173 24.3053C49.4857 24.2194 49.7648 24.096 50.0547 23.9349L50.9565 25.5775C50.5164 25.8889 50.0279 26.1251 49.4911 26.2861C48.965 26.4364 48.4765 26.5116 48.0256 26.5116ZM46.5118 21.3261H48.8952C48.8952 21.0147 48.8147 20.7463 48.6537 20.5209C48.5034 20.2847 48.2189 20.1666 47.8002 20.1666C47.4888 20.1666 47.215 20.2578 46.9789 20.4404C46.7534 20.6229 46.5977 20.9181 46.5118 21.3261Z" fill="#2992FE"/>
<path d="M54.7024 26.5116C54.3266 26.5116 53.9884 26.4471 53.6878 26.3183C53.3872 26.1787 53.1295 25.9962 52.9148 25.7708C52.7108 25.5453 52.5552 25.2823 52.4478 24.9817C52.3404 24.6811 52.2868 24.3644 52.2868 24.0315C52.2868 23.1941 52.6303 22.5392 53.3174 22.0669C54.0045 21.5837 55.1211 21.2617 56.667 21.1006C56.6026 20.5423 56.2269 20.2632 55.5398 20.2632C55.2499 20.2632 54.9439 20.3223 54.6218 20.4404C54.2998 20.5477 53.9294 20.7141 53.5107 20.9396L52.5444 19.1359C53.1134 18.7924 53.6878 18.5293 54.2676 18.3468C54.8473 18.1643 55.4539 18.0731 56.0873 18.0731C57.1287 18.0731 57.9446 18.3737 58.5351 18.9749C59.1363 19.5654 59.4369 20.5209 59.4369 21.8414V26.3183H57.1824L56.9891 25.5453H56.9247C56.6026 25.8352 56.2591 26.0714 55.8941 26.2539C55.5398 26.4257 55.1425 26.5116 54.7024 26.5116ZM55.6686 24.3858C55.8941 24.3858 56.0766 24.3375 56.2161 24.2409C56.3664 24.1335 56.5167 23.9993 56.667 23.8383V22.7432C56.0014 22.8398 55.5451 22.9848 55.2982 23.178C55.0513 23.3713 54.9278 23.5806 54.9278 23.8061C54.9278 24.1926 55.1747 24.3858 55.6686 24.3858Z" fill="#2992FE"/>
<path d="M63.7227 26.5116C63.2504 26.5116 62.8531 26.4418 62.531 26.3022C62.2197 26.1519 61.9674 25.9426 61.7742 25.6742C61.5809 25.4058 61.4413 25.089 61.3555 24.724C61.2803 24.3483 61.2427 23.9349 61.2427 23.484V15.1099H64.0126V23.5806C64.0126 23.8598 64.0609 24.0477 64.1575 24.1443C64.2649 24.2409 64.3669 24.2892 64.4635 24.2892C64.5172 24.2892 64.5602 24.2892 64.5924 24.2892C64.6353 24.2892 64.689 24.2785 64.7534 24.257L65.0755 26.2861C64.9252 26.3505 64.7373 26.4042 64.5118 26.4471C64.2971 26.4901 64.0341 26.5116 63.7227 26.5116Z" fill="#2992FE"/>
<path d="M68.5193 26.5116C68.047 26.5116 67.6497 26.4418 67.3276 26.3022C67.0163 26.1519 66.764 25.9426 66.5708 25.6742C66.3775 25.4058 66.2379 25.089 66.1521 24.724C66.0769 24.3483 66.0393 23.9349 66.0393 23.484V15.1099H68.8092V23.5806C68.8092 23.8598 68.8575 24.0477 68.9542 24.1443C69.0615 24.2409 69.1635 24.2892 69.2601 24.2892C69.3138 24.2892 69.3568 24.2892 69.389 24.2892C69.4319 24.2892 69.4856 24.2785 69.55 24.257L69.8721 26.2861C69.7218 26.3505 69.5339 26.4042 69.3084 26.4471C69.0937 26.4901 68.8307 26.5116 68.5193 26.5116Z" fill="#2992FE"/>
<path d="M72.0276 29.3459C71.7485 29.3459 71.5177 29.3298 71.3352 29.2976C71.1634 29.2761 70.9862 29.2385 70.8037 29.1848L71.2868 27.0913C71.362 27.1128 71.4425 27.1343 71.5284 27.1557C71.625 27.1772 71.7163 27.1879 71.8022 27.1879C72.1779 27.1879 72.4571 27.1128 72.6396 26.9625C72.8328 26.8229 72.9724 26.6297 73.0583 26.3827L73.1549 26.0284L70.0951 18.2663H72.865L73.8313 21.3583C73.9494 21.734 74.0514 22.1098 74.1373 22.4856C74.2231 22.8506 74.3144 23.2371 74.411 23.6451H74.4754C74.5613 23.2586 74.6418 22.8774 74.717 22.5017C74.8029 22.1259 74.8941 21.7448 74.9908 21.3583L75.796 18.2663H78.437L75.7316 26.1895C75.5168 26.737 75.2967 27.2094 75.0713 27.6066C74.8566 28.0039 74.6043 28.3313 74.3144 28.589C74.0245 28.8466 73.6917 29.0345 73.3159 29.1526C72.9509 29.2815 72.5215 29.3459 72.0276 29.3459Z" fill="#2992FE"/>
<path d="M87.8448 26.5116C87.1147 26.5116 86.4276 26.4042 85.7835 26.1895C85.1393 25.964 84.5757 25.6312 84.0925 25.191C83.6202 24.7401 83.2444 24.1819 82.9653 23.5162C82.6969 22.8398 82.5627 22.0561 82.5627 21.165C82.5627 20.2847 82.7022 19.5063 82.9814 18.83C83.2605 18.1428 83.6363 17.5685 84.1087 17.1068C84.5918 16.6344 85.15 16.2748 85.7835 16.0279C86.4169 15.7809 87.0825 15.6575 87.7804 15.6575C88.5534 15.6575 89.219 15.797 89.7773 16.0762C90.3463 16.3446 90.8187 16.6666 91.1944 17.0424L89.7451 18.8138C89.4874 18.5884 89.2136 18.4059 88.9237 18.2663C88.6446 18.116 88.2957 18.0409 87.877 18.0409C87.5227 18.0409 87.1953 18.1106 86.8946 18.2502C86.594 18.3898 86.331 18.5884 86.1055 18.8461C85.8801 19.1037 85.7029 19.4204 85.5741 19.7962C85.456 20.172 85.397 20.596 85.397 21.0684C85.397 22.0561 85.6171 22.813 86.0572 23.3391C86.4974 23.8651 87.1899 24.1282 88.1347 24.1282C88.285 24.1282 88.4299 24.1121 88.5695 24.0799C88.7198 24.0477 88.8432 23.9993 88.9399 23.9349V22.4856H87.3939V20.231H91.3877V25.2232C91.0119 25.5775 90.5127 25.8835 89.89 26.1412C89.2673 26.3881 88.5856 26.5116 87.8448 26.5116Z" fill="#2992FE"/>
<path d="M96.7742 26.5116C96.2589 26.5116 95.7597 26.4203 95.2765 26.2378C94.7934 26.0445 94.364 25.7708 93.9882 25.4165C93.6232 25.0515 93.3279 24.6059 93.1025 24.0799C92.8878 23.5538 92.7804 22.9579 92.7804 22.2923C92.7804 21.6267 92.8878 21.0308 93.1025 20.5048C93.3279 19.9787 93.6232 19.5385 93.9882 19.1842C94.364 18.8192 94.7934 18.5454 95.2765 18.3629C95.7597 18.1697 96.2589 18.0731 96.7742 18.0731C97.2895 18.0731 97.7834 18.1697 98.2558 18.3629C98.7389 18.5454 99.163 18.8192 99.528 19.1842C99.9037 19.5385 100.204 19.9787 100.43 20.5048C100.655 21.0308 100.768 21.6267 100.768 22.2923C100.768 22.9579 100.655 23.5538 100.43 24.0799C100.204 24.6059 99.9037 25.0515 99.528 25.4165C99.163 25.7708 98.7389 26.0445 98.2558 26.2378C97.7834 26.4203 97.2895 26.5116 96.7742 26.5116ZM96.7742 24.2892C97.1929 24.2892 97.4881 24.1121 97.6599 23.7578C97.8424 23.3928 97.9337 22.9043 97.9337 22.2923C97.9337 21.6804 97.8424 21.1972 97.6599 20.843C97.4881 20.4779 97.1929 20.2954 96.7742 20.2954C96.3555 20.2954 96.0549 20.4779 95.8724 20.843C95.7006 21.1972 95.6147 21.6804 95.6147 22.2923C95.6147 22.9043 95.7006 23.3928 95.8724 23.7578C96.0549 24.1121 96.3555 24.2892 96.7742 24.2892Z" fill="#2992FE"/>
<path d="M105.786 26.5116C105.27 26.5116 104.771 26.4203 104.288 26.2378C103.805 26.0445 103.375 25.7708 103 25.4165C102.635 25.0515 102.339 24.6059 102.114 24.0799C101.899 23.5538 101.792 22.9579 101.792 22.2923C101.792 21.6267 101.899 21.0308 102.114 20.5048C102.339 19.9787 102.635 19.5385 103 19.1842C103.375 18.8192 103.805 18.5454 104.288 18.3629C104.771 18.1697 105.27 18.0731 105.786 18.0731C106.301 18.0731 106.795 18.1697 107.267 18.3629C107.75 18.5454 108.174 18.8192 108.539 19.1842C108.915 19.5385 109.216 19.9787 109.441 20.5048C109.667 21.0308 109.779 21.6267 109.779 22.2923C109.779 22.9579 109.667 23.5538 109.441 24.0799C109.216 24.6059 108.915 25.0515 108.539 25.4165C108.174 25.7708 107.75 26.0445 107.267 26.2378C106.795 26.4203 106.301 26.5116 105.786 26.5116ZM105.786 24.2892C106.204 24.2892 106.499 24.1121 106.671 23.7578C106.854 23.3928 106.945 22.9043 106.945 22.2923C106.945 21.6804 106.854 21.1972 106.671 20.843C106.499 20.4779 106.204 20.2954 105.786 20.2954C105.367 20.2954 105.066 20.4779 104.884 20.843C104.712 21.1972 104.626 21.6804 104.626 22.2923C104.626 22.9043 104.712 23.3928 104.884 23.7578C105.066 24.1121 105.367 24.2892 105.786 24.2892Z" fill="#2992FE"/>
<path d="M114.153 26.5116C113.648 26.5116 113.192 26.4149 112.784 26.2217C112.387 26.0284 112.043 25.7493 111.753 25.3843C111.474 25.0193 111.254 24.5791 111.093 24.0638C110.943 23.5377 110.867 22.9472 110.867 22.2923C110.867 21.6374 110.959 21.0469 111.141 20.5209C111.334 19.9948 111.581 19.5546 111.882 19.2003C112.193 18.8353 112.548 18.5562 112.945 18.3629C113.342 18.1697 113.745 18.0731 114.153 18.0731C114.593 18.0731 114.953 18.1482 115.232 18.2985C115.511 18.4381 115.774 18.6313 116.021 18.8783L115.924 17.7188V15.1099H118.694V26.3183H116.439L116.246 25.5775H116.182C115.903 25.8567 115.581 26.0821 115.216 26.2539C114.861 26.4257 114.507 26.5116 114.153 26.5116ZM114.893 24.257C115.108 24.257 115.296 24.2194 115.457 24.1443C115.618 24.0584 115.774 23.9027 115.924 23.6773V20.7141C115.763 20.5638 115.586 20.4618 115.393 20.4081C115.199 20.3545 115.012 20.3276 114.829 20.3276C114.539 20.3276 114.276 20.4726 114.04 20.7624C113.815 21.0523 113.702 21.5515 113.702 22.2601C113.702 22.9902 113.804 23.5055 114.008 23.8061C114.222 24.1067 114.518 24.257 114.893 24.257Z" fill="#2992FE"/>
<path d="M124.013 26.3183V15.8507H126.976L128.554 20.1344C128.651 20.4242 128.742 20.7249 128.828 21.0362C128.914 21.3475 129.005 21.6589 129.102 21.9702H129.166C129.263 21.6589 129.354 21.3475 129.44 21.0362C129.526 20.7249 129.617 20.4242 129.714 20.1344L131.227 15.8507H134.19V26.3183H131.678V23.2263C131.678 22.9579 131.689 22.6627 131.71 22.3406C131.743 22.0185 131.775 21.6911 131.807 21.3583C131.839 21.0147 131.877 20.6819 131.92 20.3598C131.963 20.0378 132 19.7479 132.033 19.4902H131.968L131.099 22.0024L129.81 25.4648H128.329L127.04 22.0024L126.203 19.4902H126.138C126.171 19.7479 126.208 20.0378 126.251 20.3598C126.294 20.6819 126.332 21.0147 126.364 21.3583C126.396 21.6911 126.423 22.0185 126.444 22.3406C126.477 22.6627 126.493 22.9579 126.493 23.2263V26.3183H124.013Z" fill="#2992FE"/>
<path d="M138.383 26.5116C138.008 26.5116 137.669 26.4471 137.369 26.3183C137.068 26.1787 136.811 25.9962 136.596 25.7708C136.392 25.5453 136.236 25.2823 136.129 24.9817C136.022 24.6811 135.968 24.3644 135.968 24.0315C135.968 23.1941 136.311 22.5392 136.998 22.0669C137.686 21.5837 138.802 21.2617 140.348 21.1006C140.284 20.5423 139.908 20.2632 139.221 20.2632C138.931 20.2632 138.625 20.3223 138.303 20.4404C137.981 20.5477 137.61 20.7141 137.192 20.9396L136.226 19.1359C136.795 18.7924 137.369 18.5293 137.949 18.3468C138.528 18.1643 139.135 18.0731 139.768 18.0731C140.81 18.0731 141.626 18.3737 142.216 18.9749C142.817 19.5654 143.118 20.5209 143.118 21.8414V26.3183H140.863L140.67 25.5453H140.606C140.284 25.8352 139.94 26.0714 139.575 26.2539C139.221 26.4257 138.824 26.5116 138.383 26.5116ZM139.35 24.3858C139.575 24.3858 139.758 24.3375 139.897 24.2409C140.048 24.1335 140.198 23.9993 140.348 23.8383V22.7432C139.682 22.8398 139.226 22.9848 138.979 23.178C138.732 23.3713 138.609 23.5806 138.609 23.8061C138.609 24.1926 138.856 24.3858 139.35 24.3858Z" fill="#2992FE"/>
<path d="M147.404 26.5116C146.888 26.5116 146.341 26.4096 145.761 26.2056C145.192 26.0016 144.698 25.7278 144.28 25.3843L145.504 23.6773C146.234 24.2141 146.888 24.4825 147.468 24.4825C147.758 24.4825 147.962 24.4449 148.08 24.3697C148.209 24.2838 148.273 24.1604 148.273 23.9993C148.273 23.892 148.23 23.8007 148.145 23.7256C148.059 23.6397 147.941 23.5645 147.79 23.5001C147.651 23.425 147.49 23.3552 147.307 23.2908C147.125 23.2263 146.931 23.1512 146.727 23.0653C146.491 22.9687 146.25 22.856 146.003 22.7271C145.767 22.5876 145.552 22.4211 145.359 22.2279C145.165 22.0346 145.004 21.8146 144.875 21.5676C144.757 21.31 144.698 21.0147 144.698 20.6819C144.698 20.2847 144.773 19.925 144.924 19.6029C145.085 19.2809 145.305 19.0071 145.584 18.7816C145.863 18.5562 146.196 18.3844 146.583 18.2663C146.98 18.1375 147.415 18.0731 147.887 18.0731C148.553 18.0731 149.122 18.1858 149.594 18.4112C150.077 18.626 150.496 18.8675 150.85 19.1359L149.626 20.7785C149.336 20.5638 149.052 20.3974 148.773 20.2793C148.494 20.1612 148.23 20.1022 147.984 20.1022C147.511 20.1022 147.275 20.2525 147.275 20.5531C147.275 20.6604 147.313 20.7517 147.388 20.8268C147.474 20.902 147.586 20.9718 147.726 21.0362C147.865 21.1006 148.027 21.165 148.209 21.2294C148.392 21.2831 148.585 21.3475 148.789 21.4227C149.025 21.5086 149.267 21.6159 149.513 21.7448C149.76 21.8736 149.98 22.0346 150.174 22.2279C150.378 22.4104 150.539 22.6359 150.657 22.9043C150.786 23.1619 150.85 23.4733 150.85 23.8383C150.85 24.2141 150.775 24.5683 150.625 24.9012C150.474 25.2232 150.254 25.5077 149.964 25.7547C149.674 25.9909 149.315 26.1787 148.885 26.3183C148.456 26.4471 147.962 26.5116 147.404 26.5116Z" fill="#2992FE"/>
<path d="M154.685 26.5116C154.17 26.5116 153.622 26.4096 153.043 26.2056C152.474 26.0016 151.98 25.7278 151.561 25.3843L152.785 23.6773C153.515 24.2141 154.17 24.4825 154.75 24.4825C155.04 24.4825 155.243 24.4449 155.362 24.3697C155.49 24.2838 155.555 24.1604 155.555 23.9993C155.555 23.892 155.512 23.8007 155.426 23.7256C155.34 23.6397 155.222 23.5645 155.072 23.5001C154.932 23.425 154.771 23.3552 154.589 23.2908C154.406 23.2263 154.213 23.1512 154.009 23.0653C153.773 22.9687 153.531 22.856 153.284 22.7271C153.048 22.5876 152.833 22.4211 152.64 22.2279C152.447 22.0346 152.286 21.8146 152.157 21.5676C152.039 21.31 151.98 21.0147 151.98 20.6819C151.98 20.2847 152.055 19.925 152.205 19.6029C152.366 19.2809 152.586 19.0071 152.865 18.7816C153.145 18.5562 153.477 18.3844 153.864 18.2663C154.261 18.1375 154.696 18.0731 155.168 18.0731C155.834 18.0731 156.403 18.1858 156.875 18.4112C157.358 18.626 157.777 18.8675 158.131 19.1359L156.908 20.7785C156.618 20.5638 156.333 20.3974 156.054 20.2793C155.775 20.1612 155.512 20.1022 155.265 20.1022C154.793 20.1022 154.556 20.2525 154.556 20.5531C154.556 20.6604 154.594 20.7517 154.669 20.8268C154.755 20.902 154.868 20.9718 155.007 21.0362C155.147 21.1006 155.308 21.165 155.49 21.2294C155.673 21.2831 155.866 21.3475 156.07 21.4227C156.306 21.5086 156.548 21.6159 156.795 21.7448C157.042 21.8736 157.262 22.0346 157.455 22.2279C157.659 22.4104 157.82 22.6359 157.938 22.9043C158.067 23.1619 158.131 23.4733 158.131 23.8383C158.131 24.2141 158.056 24.5683 157.906 24.9012C157.756 25.2232 157.536 25.5077 157.246 25.7547C156.956 25.9909 156.596 26.1787 156.167 26.3183C155.737 26.4471 155.243 26.5116 154.685 26.5116Z" fill="#2992FE"/>
<path d="M161.58 26.5116C161.204 26.5116 160.866 26.4471 160.566 26.3183C160.265 26.1787 160.007 25.9962 159.793 25.7708C159.589 25.5453 159.433 25.2823 159.326 24.9817C159.218 24.6811 159.165 24.3644 159.165 24.0315C159.165 23.1941 159.508 22.5392 160.195 22.0669C160.882 21.5837 161.999 21.2617 163.545 21.1006C163.48 20.5423 163.105 20.2632 162.418 20.2632C162.128 20.2632 161.822 20.3223 161.5 20.4404C161.178 20.5477 160.807 20.7141 160.388 20.9396L159.422 19.1359C159.991 18.7924 160.566 18.5293 161.145 18.3468C161.725 18.1643 162.332 18.0731 162.965 18.0731C164.006 18.0731 164.822 18.3737 165.413 18.9749C166.014 19.5654 166.315 20.5209 166.315 21.8414V26.3183H164.06L163.867 25.5453H163.802C163.48 25.8352 163.137 26.0714 162.772 26.2539C162.418 26.4257 162.02 26.5116 161.58 26.5116ZM162.546 24.3858C162.772 24.3858 162.954 24.3375 163.094 24.2409C163.244 24.1335 163.395 23.9993 163.545 23.8383V22.7432C162.879 22.8398 162.423 22.9848 162.176 23.178C161.929 23.3713 161.806 23.5806 161.806 23.8061C161.806 24.1926 162.053 24.3858 162.546 24.3858Z" fill="#2992FE"/>
<path d="M171.051 29.6357C170.59 29.6357 170.155 29.5982 169.747 29.523C169.339 29.4586 168.979 29.3459 168.668 29.1848C168.367 29.0238 168.126 28.8144 167.943 28.5568C167.761 28.3098 167.67 28.0039 167.67 27.6388C167.67 27.0054 168.045 26.4901 168.797 26.0929V26.0284C168.582 25.8781 168.405 25.6956 168.265 25.4809C168.126 25.2662 168.056 24.9871 168.056 24.6435C168.056 24.3644 168.137 24.0906 168.298 23.8222C168.459 23.5538 168.679 23.323 168.958 23.1297V23.0653C168.668 22.8721 168.41 22.5983 168.185 22.244C167.97 21.8897 167.863 21.4764 167.863 21.004C167.863 20.5101 167.959 20.0807 168.153 19.7157C168.346 19.3399 168.604 19.0339 168.926 18.7977C169.248 18.5508 169.613 18.3683 170.021 18.2502C170.439 18.1321 170.869 18.0731 171.309 18.0731C171.781 18.0731 172.211 18.1375 172.597 18.2663H175.593V20.2632H174.433C174.465 20.3598 174.492 20.4833 174.514 20.6336C174.546 20.7839 174.562 20.9396 174.562 21.1006C174.562 21.573 174.476 21.981 174.304 22.3245C174.133 22.6573 173.902 22.9311 173.612 23.1458C173.322 23.3605 172.979 23.5216 172.581 23.6289C172.184 23.7256 171.76 23.7739 171.309 23.7739C171.041 23.7739 170.74 23.7363 170.407 23.6612C170.321 23.7363 170.268 23.8061 170.246 23.8705C170.225 23.9242 170.214 24.0101 170.214 24.1282C170.214 24.3107 170.3 24.4395 170.472 24.5147C170.643 24.5791 170.933 24.6113 171.341 24.6113H172.549C173.558 24.6113 174.337 24.7777 174.884 25.1105C175.442 25.4326 175.722 25.964 175.722 26.7048C175.722 27.145 175.609 27.5422 175.383 27.8965C175.169 28.2615 174.857 28.5729 174.449 28.8305C174.052 29.0882 173.564 29.2868 172.984 29.4264C172.415 29.566 171.771 29.6357 171.051 29.6357ZM171.309 22.1313C171.567 22.1313 171.776 22.04 171.937 21.8575C172.098 21.675 172.179 21.3905 172.179 21.004C172.179 20.6282 172.098 20.3545 171.937 20.1827C171.776 20.0002 171.567 19.9089 171.309 19.9089C171.051 19.9089 170.842 20.0002 170.681 20.1827C170.52 20.3545 170.439 20.6282 170.439 21.004C170.439 21.3905 170.52 21.675 170.681 21.8575C170.842 22.04 171.051 22.1313 171.309 22.1313ZM171.502 27.9287C171.953 27.9287 172.329 27.8589 172.63 27.7194C172.93 27.5905 173.081 27.4134 173.081 27.1879C173.081 26.9732 172.984 26.839 172.791 26.7853C172.608 26.7317 172.345 26.7048 172.002 26.7048H171.374C171.051 26.7048 170.805 26.6941 170.633 26.6726C170.472 26.6619 170.332 26.6404 170.214 26.6082C170.117 26.7048 170.042 26.7961 169.989 26.882C169.946 26.9678 169.924 27.0698 169.924 27.1879C169.924 27.4456 170.069 27.6335 170.359 27.7516C170.649 27.8697 171.03 27.9287 171.502 27.9287Z" fill="#2992FE"/>
<path d="M180.333 26.5116C179.743 26.5116 179.195 26.4203 178.691 26.2378C178.186 26.0445 177.746 25.7708 177.37 25.4165C177.005 25.0515 176.715 24.6059 176.5 24.0799C176.286 23.5538 176.178 22.9579 176.178 22.2923C176.178 21.6374 176.286 21.0523 176.5 20.537C176.726 20.0109 177.016 19.5654 177.37 19.2003C177.735 18.8353 178.148 18.5562 178.61 18.3629C179.072 18.1697 179.55 18.0731 180.043 18.0731C180.634 18.0731 181.149 18.1751 181.589 18.379C182.03 18.583 182.395 18.8622 182.684 19.2164C182.974 19.5707 183.189 19.9841 183.329 20.4565C183.479 20.9288 183.554 21.4334 183.554 21.9702C183.554 22.2172 183.538 22.448 183.506 22.6627C183.484 22.8774 183.463 23.0331 183.441 23.1297H178.852C178.981 23.6128 179.211 23.951 179.544 24.1443C179.877 24.3268 180.269 24.418 180.72 24.418C180.999 24.418 181.267 24.3805 181.525 24.3053C181.793 24.2194 182.072 24.096 182.362 23.9349L183.264 25.5775C182.824 25.8889 182.336 26.1251 181.799 26.2861C181.273 26.4364 180.784 26.5116 180.333 26.5116ZM178.819 21.3261H181.203C181.203 21.0147 181.122 20.7463 180.961 20.5209C180.811 20.2847 180.526 20.1666 180.108 20.1666C179.796 20.1666 179.523 20.2578 179.286 20.4404C179.061 20.6229 178.905 20.9181 178.819 21.3261Z" fill="#2992FE"/>
<path d="M187.554 26.5116C187.038 26.5116 186.491 26.4096 185.911 26.2056C185.342 26.0016 184.848 25.7278 184.43 25.3843L185.653 23.6773C186.384 24.2141 187.038 24.4825 187.618 24.4825C187.908 24.4825 188.112 24.4449 188.23 24.3697C188.359 24.2838 188.423 24.1604 188.423 23.9993C188.423 23.892 188.38 23.8007 188.295 23.7256C188.209 23.6397 188.091 23.5645 187.94 23.5001C187.801 23.425 187.64 23.3552 187.457 23.2908C187.275 23.2263 187.081 23.1512 186.877 23.0653C186.641 22.9687 186.4 22.856 186.153 22.7271C185.917 22.5876 185.702 22.4211 185.509 22.2279C185.315 22.0346 185.154 21.8146 185.025 21.5676C184.907 21.31 184.848 21.0147 184.848 20.6819C184.848 20.2847 184.923 19.925 185.074 19.6029C185.235 19.2809 185.455 19.0071 185.734 18.7816C186.013 18.5562 186.346 18.3844 186.732 18.2663C187.13 18.1375 187.564 18.0731 188.037 18.0731C188.703 18.0731 189.272 18.1858 189.744 18.4112C190.227 18.626 190.646 18.8675 191 19.1359L189.776 20.7785C189.486 20.5638 189.202 20.3974 188.923 20.2793C188.643 20.1612 188.38 20.1022 188.133 20.1022C187.661 20.1022 187.425 20.2525 187.425 20.5531C187.425 20.6604 187.462 20.7517 187.538 20.8268C187.624 20.902 187.736 20.9718 187.876 21.0362C188.015 21.1006 188.176 21.165 188.359 21.2294C188.541 21.2831 188.735 21.3475 188.939 21.4227C189.175 21.5086 189.416 21.6159 189.663 21.7448C189.91 21.8736 190.13 22.0346 190.324 22.2279C190.528 22.4104 190.689 22.6359 190.807 22.9043C190.936 23.1619 191 23.4733 191 23.8383C191 24.2141 190.925 24.5683 190.775 24.9012C190.624 25.2232 190.404 25.5077 190.114 25.7547C189.824 25.9909 189.465 26.1787 189.035 26.3183C188.606 26.4471 188.112 26.5116 187.554 26.5116Z" fill="#2992FE"/>
</g>
</svg>
