<svg width="32" height="32" viewBox="0 0 624 624" fill="none" xmlns="http://www.w3.org/2000/svg">
<path fill-rule="evenodd" clip-rule="evenodd" d="M477 576.849C565.271 521.74 624 423.729 624 312C624 139.687 484.313 0 312 0C139.687 0 0 139.687 0 312C0 423.729 58.7286 521.74 147 576.849V328C147 236.873 220.873 163 312 163C403.127 163 477 236.873 477 328V576.849ZM427 602.122V328C427 264.487 375.513 213 312 213C248.487 213 197 264.487 197 328V602.122C232.586 616.24 271.387 624 312 624C352.613 624 391.414 616.24 427 602.122Z" fill="#2992FE"/>
<path fill-rule="evenodd" clip-rule="evenodd" d="M477 576.849C565.271 521.74 624 423.729 624 312C624 139.687 484.313 0 312 0C139.687 0 0 139.687 0 312C0 423.729 58.7286 521.74 147 576.849V328C147 236.873 220.873 163 312 163C403.127 163 477 236.873 477 328V576.849Z" fill="#FF5A31"/>
</svg>
